<!DOCTYPE svg PUBLIC "-//W3C//DTD SVG 1.1//EN" "http://www.w3.org/Graphics/SVG/1.1/DTD/svg11.dtd">
<!-- Uploaded to: SVG Repo, www.svgrepo.com, Transformed by: SVG Repo Mixer Tools -->
<svg fill="#ffffff" width="800px" height="800px" viewBox="0 0 256 256" id="Flat" xmlns="http://www.w3.org/2000/svg" stroke="#ffffff">
<g id="SVGRepo_bgCarrier" stroke-width="0"/>
<g id="SVGRepo_tracerCarrier" stroke-linecap="round" stroke-linejoin="round"/>
<g id="SVGRepo_iconCarrier"> <path d="M223.999,128.00037a8.00039,8.00039,0,0,1-8,8h-176a8,8,0,0,1,0-16h176A8.00039,8.00039,0,0,1,223.999,128.00037Zm-184-56h176a8,8,0,0,0,0-16h-176a8,8,0,1,0,0,16Zm176,112h-176a8,8,0,0,0,0,16h176a8,8,0,0,0,0-16Z"/> </g>
</svg>